<svg width="500" height="500" viewBox="0 0 500 500" fill="none" xmlns="http://www.w3.org/2000/svg">
<path d="M227.5 54L242.97 190.152L350.183 104.817L264.848 212.03L401 227.5L264.848 242.97L350.183 350.183L242.97 264.848L227.5 401L212.03 264.848L104.817 350.183L190.152 242.97L54 227.5L190.152 212.03L104.817 104.817L212.03 190.152L227.5 54Z" fill="#002776"/>
<path d="M161.104 67.207L227.5 187.075L293.896 67.207L256.085 198.915L387.793 161.104L267.925 227.5L387.793 293.896L256.085 256.085L293.896 387.793L227.5 267.926L161.104 387.793L198.915 256.085L67.2069 293.896L187.074 227.5L67.2068 161.104L198.915 198.915L161.104 67.207Z" fill="#002776"/>
</svg>
